<mxfile host="app.diagrams.net" agent="Mozilla/5.0 (Macintosh; Intel Mac OS X 10_15_7) AppleWebKit/605.1.15 (KHTML, like Gecko) Version/18.0.1 Safari/605.1.15" version="24.8.3">
  <diagram name="Page-1" id="V7h7p79RRdHyU9IivIby">
    <mxGraphModel dx="1095" dy="728" grid="1" gridSize="10" guides="1" tooltips="1" connect="1" arrows="1" fold="1" page="1" pageScale="1" pageWidth="827" pageHeight="1169" math="0" shadow="0">
      <root>
        <mxCell id="0" />
        <mxCell id="1" parent="0" />
        <mxCell id="8l4QeA4jSWcK5tcnx8Xo-2" value="" style="rounded=0;whiteSpace=wrap;html=1;" vertex="1" parent="1">
          <mxGeometry x="300" y="230" width="140" height="120" as="geometry" />
        </mxCell>
        <mxCell id="8l4QeA4jSWcK5tcnx8Xo-8" value="" style="edgeStyle=orthogonalEdgeStyle;rounded=0;orthogonalLoop=1;jettySize=auto;html=1;" edge="1" parent="1" source="8l4QeA4jSWcK5tcnx8Xo-1" target="8l4QeA4jSWcK5tcnx8Xo-3">
          <mxGeometry relative="1" as="geometry" />
        </mxCell>
        <mxCell id="8l4QeA4jSWcK5tcnx8Xo-1" value="Korisnik" style="shape=umlActor;verticalLabelPosition=bottom;verticalAlign=top;html=1;outlineConnect=0;" vertex="1" parent="1">
          <mxGeometry x="190" y="260" width="30" height="60" as="geometry" />
        </mxCell>
        <mxCell id="8l4QeA4jSWcK5tcnx8Xo-10" value="" style="edgeStyle=orthogonalEdgeStyle;rounded=0;orthogonalLoop=1;jettySize=auto;html=1;" edge="1" parent="1" source="8l4QeA4jSWcK5tcnx8Xo-3" target="8l4QeA4jSWcK5tcnx8Xo-9">
          <mxGeometry relative="1" as="geometry" />
        </mxCell>
        <mxCell id="8l4QeA4jSWcK5tcnx8Xo-3" value="Osobni podaci&lt;div&gt;(visina, masa, ...)&lt;/div&gt;" style="ellipse;whiteSpace=wrap;html=1;" vertex="1" parent="1">
          <mxGeometry x="310" y="250" width="120" height="80" as="geometry" />
        </mxCell>
        <mxCell id="8l4QeA4jSWcK5tcnx8Xo-6" value="" style="edgeStyle=orthogonalEdgeStyle;rounded=0;orthogonalLoop=1;jettySize=auto;html=1;" edge="1" parent="1" source="8l4QeA4jSWcK5tcnx8Xo-4" target="8l4QeA4jSWcK5tcnx8Xo-1">
          <mxGeometry relative="1" as="geometry">
            <Array as="points">
              <mxPoint x="220" y="400" />
            </Array>
          </mxGeometry>
        </mxCell>
        <mxCell id="8l4QeA4jSWcK5tcnx8Xo-4" value="Trener" style="shape=umlActor;verticalLabelPosition=bottom;verticalAlign=top;html=1;outlineConnect=0;" vertex="1" parent="1">
          <mxGeometry x="240" y="370" width="30" height="60" as="geometry" />
        </mxCell>
        <mxCell id="8l4QeA4jSWcK5tcnx8Xo-7" style="edgeStyle=orthogonalEdgeStyle;rounded=0;orthogonalLoop=1;jettySize=auto;html=1;" edge="1" parent="1" source="8l4QeA4jSWcK5tcnx8Xo-5" target="8l4QeA4jSWcK5tcnx8Xo-1">
          <mxGeometry relative="1" as="geometry">
            <Array as="points">
              <mxPoint x="190" y="400" />
            </Array>
          </mxGeometry>
        </mxCell>
        <mxCell id="8l4QeA4jSWcK5tcnx8Xo-5" value="Obični&lt;div&gt;Korisnik&lt;/div&gt;" style="shape=umlActor;verticalLabelPosition=bottom;verticalAlign=top;html=1;outlineConnect=0;" vertex="1" parent="1">
          <mxGeometry x="130" y="370" width="30" height="60" as="geometry" />
        </mxCell>
        <mxCell id="8l4QeA4jSWcK5tcnx8Xo-9" value="Baza podataka" style="rounded=0;whiteSpace=wrap;html=1;" vertex="1" parent="1">
          <mxGeometry x="480" y="260" width="120" height="60" as="geometry" />
        </mxCell>
      </root>
    </mxGraphModel>
  </diagram>
</mxfile>
